<svg width="40" height="36" viewBox="0 0 40 36" fill="none" xmlns="http://www.w3.org/2000/svg">
<g clip-path="url(#clip0_191_8)">
<path d="M37.7886 0.172607H25.449C24.3286 0.172607 23.4193 1.08186 23.4193 2.2022V14.5421C23.4193 15.6625 24.3286 16.5717 25.449 16.5717H31.355C31.2778 19.8029 30.527 22.3885 29.1061 24.3329C27.9858 25.8673 26.2892 27.1376 24.0201 28.1404C22.9769 28.599 22.5263 29.8331 23.0134 30.8642L24.4747 33.9492C24.9456 34.9395 26.1106 35.3738 27.1173 34.9395C29.8042 33.7785 32.0736 32.3091 33.9242 30.523C36.1814 28.3434 37.7277 25.8835 38.564 23.1395C39.4003 20.3954 39.8181 16.6529 39.8181 11.9036V2.2022C39.8181 1.0819 38.9088 0.172607 37.7886 0.172607ZM4.54441 34.9313C7.19909 33.7745 9.45596 32.3052 11.3191 30.523C13.5963 28.3434 15.1509 25.8917 15.9871 23.1679C16.8233 20.4442 17.2413 16.6894 17.2413 11.9036V2.2022C17.2413 1.08186 16.3321 0.172607 15.2117 0.172607H2.87201C1.75169 0.172607 0.842449 1.08186 0.842449 2.2022V14.5421C0.842449 15.6625 1.75169 16.5717 2.87201 16.5717H8.77805C8.7009 19.8029 7.94997 22.3885 6.52928 24.3329C5.40895 25.8673 3.71226 27.1376 1.4432 28.1404C0.400004 28.599 -0.0505574 29.8331 0.436539 30.8642L1.89376 33.941C2.36466 34.9313 3.53775 35.3698 4.54441 34.9313Z" fill="#FF9900"/>
</g>
<defs>
<clipPath id="clip0_191_8">
<rect width="40" height="35.28" fill="white"/>
</clipPath>
</defs>
</svg>
