<svg width="150" height="150" viewBox="0 0 150 150" fill="none" xmlns="http://www.w3.org/2000/svg">
<path d="M71.8188 12.1151V3.65511H77.7948V5.35911H73.9308V6.96711H77.5188V8.67111H73.9308V10.4111H77.7948V12.1151H71.8188Z" fill="white"/>
<path d="M78.0862 11.9826L78.8519 6.12844L80.9104 6.39732L80.8077 7.18263C81.0265 6.92883 81.2975 6.73832 81.6207 6.61111C81.9519 6.48494 82.3158 6.44776 82.7124 6.49957C83.109 6.55137 83.4387 6.68318 83.7015 6.895C83.9722 7.10785 84.159 7.40656 84.262 7.79114C84.5049 7.47595 84.8089 7.24941 85.1738 7.11152C85.5398 6.96569 85.9291 6.91972 86.3416 6.9736C87.0238 7.06271 87.5005 7.33475 87.7718 7.78972C88.0521 8.23779 88.1356 8.89414 88.0226 9.75878L87.5697 13.2213L85.4517 12.9446L85.8968 9.54162C85.9414 9.20053 85.922 8.94788 85.8386 8.7837C85.7552 8.61951 85.5945 8.52188 85.3565 8.49079C85.063 8.45246 84.8234 8.52605 84.6378 8.71157C84.4601 8.89812 84.3463 9.18178 84.2965 9.56254L83.881 12.7395L81.763 12.4628L82.2081 9.05981C82.2527 8.71872 82.2333 8.46608 82.1499 8.30189C82.0665 8.13771 81.9058 8.04007 81.6678 8.00899C81.3822 7.97169 81.1466 8.0458 80.961 8.23132C80.7833 8.41787 80.6696 8.70153 80.6198 9.08229L80.2042 12.2592L78.0862 11.9826Z" fill="white"/>
<path d="M87.4105 15.46L89.4844 7.6673L91.4908 8.20054L91.284 8.9775C91.5127 8.74028 91.8072 8.58263 92.1674 8.50453C92.5276 8.42643 92.8971 8.43772 93.2759 8.53841C93.763 8.66787 94.1603 8.90174 94.4676 9.24003C94.7826 9.58038 94.9849 10.0025 95.0743 10.5064C95.1735 11.0046 95.1408 11.5629 94.9762 12.1814C94.8137 12.7921 94.5683 13.2939 94.2403 13.6868C93.9122 14.0797 93.5268 14.3457 93.0842 14.4847C92.6493 14.6257 92.1844 14.6304 91.6896 14.4989C91.3339 14.4044 91.021 14.2426 90.7509 14.0135C90.4884 13.7865 90.3089 13.5277 90.2124 13.2372L89.4748 16.0087L87.4105 15.46ZM91.4444 12.8072C91.7537 12.8894 92.0397 12.8412 92.3025 12.6627C92.5652 12.4842 92.7645 12.1399 92.9003 11.6296C93.0381 11.1117 93.0364 10.7139 92.895 10.4362C92.7557 10.1509 92.5315 9.96712 92.2222 9.88492C91.9052 9.80067 91.6153 9.8478 91.3526 10.0263C91.0919 10.1971 90.8926 10.5414 90.7548 11.0594C90.619 11.5696 90.6207 11.9674 90.76 12.2528C90.8993 12.5381 91.1274 12.7229 91.4444 12.8072Z" fill="white"/>
<path d="M98.7172 16.8906C98.1104 16.6414 97.6285 16.3095 97.2714 15.8947C96.9143 15.48 96.6982 15.0064 96.623 14.4739C96.5479 13.9414 96.6305 13.383 96.8709 12.7985C97.1143 12.2066 97.4485 11.7514 97.8736 11.433C98.3017 11.1072 98.7886 10.9223 99.3343 10.8783C99.88 10.8343 100.456 10.937 101.063 11.1862C101.67 11.4354 102.152 11.7673 102.509 12.1821C102.866 12.5968 103.079 13.0689 103.146 13.5983C103.224 14.1234 103.142 14.6819 102.898 15.2738C102.658 15.8583 102.324 16.3134 101.896 16.6392C101.475 16.9681 100.992 17.1545 100.446 17.1985C99.9004 17.2424 99.3241 17.1398 98.7172 16.8906ZM99.3151 15.4368C99.6111 15.5583 99.901 15.5476 100.185 15.4047C100.468 15.2617 100.711 14.9461 100.911 14.4578C101.115 13.9621 101.165 13.5674 101.061 13.2738C100.96 12.9729 100.761 12.7616 100.465 12.64C100.162 12.5154 99.8683 12.5246 99.5846 12.6675C99.304 12.8031 99.0617 13.1187 98.8579 13.6144C98.657 14.1028 98.6072 14.4974 98.7083 14.7984C98.8095 15.0994 99.0117 15.3122 99.3151 15.4368Z" fill="white"/>
<path d="M103.427 18.7942L104.205 12.4378L106.08 13.5103L105.516 17.1274L108.34 14.8033L109.497 15.4646L108.902 19.1338L111.767 16.7635L113.528 17.7705L108.458 21.6721L106.927 20.7962L107.36 17.6984L104.958 19.6701L103.427 18.7942Z" fill="white"/>
<path d="M113.189 25.1713C112.615 24.7358 112.193 24.2597 111.923 23.743C111.664 23.2247 111.563 22.6963 111.621 22.1576C111.679 21.6189 111.899 21.098 112.282 20.595C112.645 20.1174 113.072 19.7738 113.563 19.5641C114.061 19.3593 114.572 19.2953 115.096 19.3722C115.632 19.4475 116.139 19.6666 116.617 20.0295C117.088 20.3876 117.421 20.7959 117.615 21.2546C117.815 21.7181 117.867 22.2047 117.771 22.7143C117.686 23.2225 117.457 23.7217 117.084 24.212L116.801 24.5845L113.638 22.1822C113.463 22.5314 113.423 22.8479 113.519 23.1316C113.615 23.4153 113.838 23.6902 114.188 23.9563C114.43 24.1402 114.708 24.2963 115.023 24.4246C115.349 24.5514 115.667 24.6222 115.977 24.6369L115.548 26.0738C115.175 26.0619 114.774 25.9738 114.347 25.8096C113.919 25.6453 113.533 25.4326 113.189 25.1713ZM115.858 21.186C115.603 20.9925 115.335 20.9092 115.053 20.9362C114.777 20.9681 114.506 21.1136 114.238 21.3726L116.016 22.7225C116.224 22.4087 116.311 22.123 116.276 21.8652C116.252 21.606 116.113 21.3795 115.858 21.186Z" fill="white"/>
<path d="M117.958 28.9929L122.111 24.7964L123.588 26.2556L122.887 26.9636C123.559 26.6714 124.239 26.8203 124.927 27.4103L125.379 27.7895L124.198 29.1532L123.294 28.4118C122.964 28.1422 122.661 28.011 122.384 28.0182C122.112 28.0197 121.841 28.1569 121.571 28.4299L119.503 30.5196L117.958 28.9929Z" fill="white"/>
<path d="M129.503 31.2977L131.028 30.1122L132.406 31.8831L130.881 33.0686L129.503 31.2977ZM124.072 35.5939L128.734 31.971L130.046 33.6567L125.384 37.2796L124.072 35.5939Z" fill="white"/>
<path d="M127.69 40.4357L132.781 37.4474L133.833 39.2372L133.14 39.6441C133.507 39.6696 133.843 39.7832 134.147 39.985C134.452 40.1868 134.707 40.4635 134.914 40.8153C135.271 41.4222 135.355 41.9758 135.166 42.4761C134.982 42.9832 134.517 43.4554 133.772 43.8928L130.76 45.6603L129.678 43.8187L132.617 42.0938C132.927 41.9115 133.116 41.7268 133.182 41.5395C133.252 41.3591 133.227 41.1654 133.105 40.9585C132.943 40.6827 132.723 40.5146 132.447 40.4543C132.177 40.39 131.894 40.4449 131.597 40.6191L128.772 42.2772L127.69 40.4357Z" fill="white"/>
<path d="M130.699 50.9889C130.468 50.444 130.302 49.9103 130.202 49.3879C130.105 48.8729 130.103 48.396 130.195 47.9574L131.736 47.9037C131.685 48.2553 131.693 48.6429 131.76 49.0665C131.83 49.4973 131.932 49.8711 132.067 50.1878C132.257 50.637 132.495 50.9315 132.78 51.0713C133.061 51.2216 133.401 51.2124 133.799 51.0439L134.307 50.8285C133.976 50.7862 133.668 50.6432 133.382 50.3994C133.096 50.1557 132.878 49.8571 132.728 49.5036C132.522 49.0175 132.452 48.5472 132.52 48.0927C132.595 47.6351 132.792 47.2174 133.11 46.8395C133.43 46.469 133.863 46.1683 134.408 45.9373C134.953 45.7063 135.471 45.6044 135.96 45.6316C136.453 45.6661 136.886 45.817 137.26 46.0842C137.642 46.3483 137.936 46.7234 138.142 47.2094C138.298 47.5776 138.359 47.9471 138.325 48.3177C138.302 48.6925 138.191 49.0045 137.993 49.2537L138.733 48.94L139.548 50.8621L134.842 52.8566C133.891 53.2593 133.068 53.2954 132.372 52.9649C131.675 52.6344 131.118 51.9758 130.699 50.9889ZM134.433 49.4978C134.571 49.8218 134.79 50.0328 135.093 50.1306C135.395 50.2284 135.745 50.1931 136.143 50.0245C136.54 49.856 136.809 49.6292 136.949 49.344C137.089 49.0589 137.09 48.7544 136.952 48.4303C136.818 48.1137 136.6 47.9064 136.297 47.8086C135.995 47.7107 135.645 47.7461 135.247 47.9146C134.85 48.0832 134.581 48.31 134.441 48.5951C134.301 48.8802 134.299 49.1811 134.433 49.4978Z" fill="white"/>
<path d="M144.042 64.1309L145.955 63.8594L146.271 66.0811L144.358 66.3526L144.042 64.1309ZM137.195 65.1635L143.041 64.3337L143.341 66.4484L137.496 67.2782L137.195 65.1635Z" fill="white"/>
<path d="M137.924 71.1614L143.827 71.0956L143.85 73.1715L143.047 73.1805C143.353 73.3851 143.588 73.6505 143.751 73.9767C143.915 74.3029 143.999 74.6699 144.004 75.0779C144.012 75.7819 143.809 76.3042 143.397 76.6448C142.985 76.9934 142.347 77.1725 141.483 77.1821L137.991 77.221L137.967 75.0851L141.375 75.0472C141.735 75.0432 141.99 74.9763 142.141 74.8466C142.292 74.725 142.366 74.5441 142.363 74.3041C142.359 73.9842 142.253 73.7293 142.042 73.5397C141.84 73.3499 141.567 73.2569 141.223 73.2608L137.948 73.2972L137.924 71.1614Z" fill="white"/>
<path d="M137.512 81.4521C137.572 80.9517 137.748 80.5215 138.041 80.1617C138.333 79.8097 138.723 79.5501 139.21 79.3826C139.696 79.2231 140.253 79.1808 140.881 79.2557C141.516 79.3315 142.048 79.5037 142.475 79.7722C142.909 80.0495 143.226 80.3936 143.427 80.8042C143.627 81.2229 143.697 81.6824 143.637 82.1828C143.592 82.5562 143.472 82.8883 143.276 83.1791C143.087 83.4788 142.86 83.6974 142.594 83.8348L145.835 84.2215L145.581 86.3425L137.181 85.3402L137.428 83.2669L138.239 83.3636C137.971 83.1786 137.769 82.9128 137.633 82.5662C137.505 82.2206 137.465 81.8493 137.512 81.4521ZM138.992 82.3175C138.954 82.6352 139.042 82.9116 139.256 83.1466C139.469 83.3815 139.838 83.5303 140.363 83.5928C140.895 83.6563 141.288 83.5986 141.543 83.4195C141.806 83.2414 141.957 82.9935 141.995 82.6758C142.034 82.3501 141.946 82.0697 141.733 81.8348C141.527 81.6008 141.158 81.452 140.626 81.3885C140.102 81.326 139.708 81.3837 139.445 81.5618C139.182 81.7399 139.031 81.9918 138.992 82.3175Z" fill="white"/>
<path d="M143.004 91.1725L144.876 91.6479L144.323 93.8227L142.451 93.3473L143.004 91.1725ZM136.278 89.5268L142 90.9796L141.474 93.0498L135.751 91.5969L136.278 89.5268Z" fill="white"/>
<path d="M133.903 97.2741L140.348 97.0479L139.517 99.1327L135.931 99.0882L138.541 101.585L137.764 103.536L133.254 98.9017L133.903 97.2741Z" fill="white"/>
<path d="M136.565 108.095L138.252 109.036L137.159 110.995L135.471 110.055L136.565 108.095ZM130.487 104.777L135.644 107.651L134.604 109.516L129.446 106.642L130.487 104.777Z" fill="white"/>
<path d="M126.056 111.631C126.356 111.227 126.723 110.941 127.156 110.774C127.584 110.614 128.052 110.582 128.558 110.679C129.059 110.782 129.564 111.022 130.071 111.398C130.585 111.78 130.961 112.193 131.198 112.638C131.437 113.094 131.542 113.551 131.512 114.007C131.477 114.469 131.31 114.902 131.009 115.307C130.785 115.609 130.515 115.837 130.201 115.992C129.888 116.159 129.582 116.235 129.282 116.222L131.904 118.167L130.63 119.882L123.836 114.841L125.081 113.165L125.736 113.651C125.596 113.357 125.553 113.026 125.607 112.658C125.668 112.295 125.817 111.953 126.056 111.631ZM126.91 113.117C126.719 113.374 126.658 113.658 126.727 113.967C126.796 114.277 127.042 114.59 127.466 114.904C127.897 115.224 128.267 115.369 128.577 115.34C128.894 115.317 129.148 115.176 129.339 114.919C129.534 114.656 129.598 114.369 129.529 114.059C129.467 113.754 129.221 113.442 128.79 113.122C128.366 112.808 127.996 112.663 127.679 112.686C127.362 112.71 127.106 112.854 126.91 113.117Z" fill="white"/>
<path d="M120.828 117.983C121.362 117.431 121.907 117.168 122.462 117.193C123.017 117.229 123.606 117.547 124.227 118.147L126.729 120.566L125.244 122.1L122.698 119.64C122.284 119.24 121.904 119.218 121.56 119.575C121.359 119.781 121.27 120.023 121.292 120.3C121.313 120.577 121.448 120.835 121.695 121.074L124.042 123.342L122.557 124.877L118.311 120.774L119.763 119.274L120.29 119.782C120.142 119.106 120.322 118.506 120.828 117.983Z" fill="white"/>
<path d="M114.86 123.56C115.217 123.277 115.585 123.091 115.966 123.003C116.339 122.92 116.694 122.93 117.03 123.03C117.365 123.142 117.649 123.346 117.884 123.64C118.148 123.971 118.269 124.304 118.249 124.637C118.233 124.977 118.063 125.342 117.74 125.732C117.421 126.128 116.939 126.583 116.294 127.096L115.938 127.38L116.042 127.511C116.222 127.736 116.408 127.849 116.602 127.848C116.789 127.852 117.024 127.742 117.306 127.518C117.544 127.329 117.777 127.082 118.005 126.778C118.233 126.474 118.423 126.134 118.574 125.759L119.871 126.521C119.804 126.758 119.684 127.017 119.509 127.299C119.335 127.581 119.13 127.851 118.896 128.109C118.667 128.373 118.433 128.6 118.195 128.789C117.425 129.401 116.723 129.689 116.089 129.651C115.449 129.618 114.846 129.244 114.277 128.531L112.162 125.874L113.721 124.635L114.244 125.292C114.136 124.989 114.134 124.684 114.237 124.377C114.346 124.077 114.553 123.804 114.86 123.56ZM115.351 124.948C115.12 125.132 114.985 125.362 114.948 125.636C114.905 125.916 114.981 126.178 115.175 126.422L115.31 126.591L115.667 126.307C116.036 126.013 116.276 125.756 116.387 125.535C116.496 125.326 116.483 125.137 116.349 124.968C116.234 124.824 116.089 124.745 115.914 124.73C115.733 124.721 115.545 124.794 115.351 124.948Z" fill="white"/>
<path d="M106.583 129.305C107.282 128.884 107.894 128.753 108.42 128.913C108.95 129.079 109.43 129.519 109.86 130.231L113.013 135.462L111.183 136.564L108.067 131.395C107.778 130.915 107.414 130.807 106.975 131.071C106.907 131.112 106.84 131.157 106.776 131.205C106.704 131.258 106.639 131.311 106.578 131.366L105.756 129.956C105.985 129.716 106.261 129.498 106.583 129.305Z" fill="white"/>
<path d="M100.464 132.418C100.963 132.2 101.447 132.049 101.917 131.966C102.38 131.886 102.798 131.874 103.172 131.929L103.274 133.39C102.935 133.355 102.564 133.364 102.16 133.419C101.759 133.48 101.383 133.588 101.031 133.742C100.759 133.86 100.581 133.982 100.496 134.106C100.414 134.238 100.4 134.366 100.455 134.491C100.503 134.601 100.578 134.664 100.682 134.68C100.781 134.707 100.906 134.704 101.058 134.673L102.365 134.337C102.852 134.212 103.276 134.223 103.637 134.371C103.999 134.518 104.269 134.797 104.449 135.208C104.616 135.589 104.652 135.961 104.558 136.326C104.468 136.697 104.264 137.039 103.947 137.352C103.633 137.673 103.23 137.94 102.739 138.155C102.35 138.325 101.945 138.445 101.522 138.517C101.102 138.595 100.705 138.594 100.329 138.514L100.269 137.06C100.546 137.114 100.863 137.12 101.22 137.077C101.58 137.042 101.884 136.97 102.134 136.861C102.434 136.73 102.628 136.593 102.714 136.451C102.803 136.315 102.822 136.189 102.771 136.072C102.684 135.874 102.496 135.812 102.205 135.887L100.893 136.211C100.392 136.343 99.9622 136.339 99.6039 136.199C99.2415 136.069 98.9689 135.795 98.7861 135.377C98.5263 134.784 98.5516 134.223 98.8618 133.694C99.1752 133.173 99.7094 132.748 100.464 132.418Z" fill="white"/>
<path d="M85.7142 137.028L86.3717 141.31L87.4748 141.141L87.7134 142.694L86.6102 142.864C86.697 143.692 86.5268 144.349 86.0996 144.836C85.6737 145.33 84.9668 145.681 83.979 145.889L83.2728 146.034L82.9229 144.546L83.463 144.427C83.9168 144.325 84.2204 144.193 84.3737 144.032C84.5191 143.872 84.57 143.65 84.5262 143.365L84.4989 143.187L83.0281 143.413L82.7895 141.859L84.2603 141.634L83.6029 137.352L85.7142 137.028Z" fill="white"/>
<path d="M76.5794 137.783C77.2352 137.768 77.8098 137.879 78.3032 138.116C78.7966 138.354 79.1845 138.701 79.4668 139.159C79.749 139.617 79.8972 140.161 79.9113 140.793C79.9256 141.433 79.8018 141.984 79.5401 142.446C79.2785 142.916 78.9065 143.28 78.4241 143.539C77.9418 143.798 77.3727 143.935 76.7169 143.949C76.061 143.964 75.4864 143.853 74.993 143.615C74.4996 143.378 74.1157 143.031 73.8415 142.573C73.5594 142.123 73.4112 141.578 73.3969 140.938C73.3828 140.307 73.5066 139.756 73.7682 139.286C74.0218 138.816 74.3897 138.452 74.8721 138.193C75.3544 137.934 75.9235 137.797 76.5794 137.783ZM76.6144 139.354C76.2945 139.361 76.0332 139.487 75.8306 139.732C75.628 139.976 75.5326 140.363 75.5444 140.891C75.5563 141.426 75.6689 141.808 75.882 142.035C76.0953 142.271 76.3619 142.385 76.6818 142.378C77.0097 142.37 77.275 142.244 77.4776 142C77.6804 141.763 77.7758 141.377 77.7638 140.841C77.7521 140.313 77.6395 139.932 77.4262 139.696C77.2129 139.461 76.9423 139.347 76.6144 139.354Z" fill="white"/>
<path d="M70.0726 137.769L69.4376 143.638L67.3736 143.415L67.4808 142.425C67.1372 143.072 66.5126 143.379 65.6069 143.345L65.0172 143.33L65.0915 141.527L66.2603 141.545C66.6862 141.551 67.0053 141.465 67.2177 141.286C67.4293 141.116 67.5557 140.84 67.597 140.458L67.9132 137.535L70.0726 137.769Z" fill="white"/>
<path d="M53.3089 133.949C53.7345 134.113 54.0813 134.336 54.3494 134.619C54.61 134.9 54.7819 135.21 54.865 135.551C54.9377 135.896 54.9065 136.244 54.7712 136.595C54.6188 136.99 54.3934 137.264 54.0952 137.415C53.794 137.573 53.3933 137.612 52.893 137.531C52.3899 137.457 51.7538 137.272 50.9848 136.976L50.5592 136.812L50.4988 136.969C50.3952 137.238 50.3928 137.455 50.4915 137.622C50.5827 137.786 50.7963 137.932 51.1323 138.062C51.416 138.171 51.7468 138.247 52.1248 138.289C52.5028 138.332 52.892 138.323 53.2924 138.263L53.2914 139.767C53.053 139.829 52.7681 139.857 52.4366 139.849C52.1051 139.842 51.7688 139.802 51.4276 139.731C51.0836 139.667 50.7697 139.581 50.486 139.472C49.5677 139.118 48.9645 138.659 48.6765 138.094C48.381 137.526 48.3972 136.816 48.7252 135.965L49.9465 132.796L51.8055 133.512L51.5035 134.296C51.7098 134.049 51.9716 133.893 52.2887 133.826C52.603 133.767 52.9431 133.808 53.3089 133.949ZM52.3603 135.075C52.0841 134.969 51.8181 134.97 51.5624 135.077C51.2993 135.181 51.1116 135.379 50.9994 135.67L50.9217 135.872L51.3473 136.036C51.7878 136.205 52.1312 136.282 52.3777 136.265C52.6138 136.253 52.7707 136.146 52.8484 135.945C52.9145 135.773 52.9095 135.608 52.8332 135.45C52.7494 135.289 52.5918 135.164 52.3603 135.075Z" fill="white"/>
<path d="M37.6613 125.515C37.9787 125.745 38.2208 126.024 38.3877 126.352C38.5499 126.687 38.6135 127.015 38.5785 127.336L39.0509 126.685L40.7317 127.903L35.7619 134.75L34.0324 133.496L35.9499 130.855C35.6635 130.963 35.3493 130.987 35.0074 130.927C34.659 130.862 34.3359 130.722 34.0379 130.506C33.6234 130.206 33.3335 129.842 33.1683 129.416C32.9966 128.985 32.9596 128.519 33.0573 128.017C33.1503 127.521 33.3848 127.014 33.7607 126.496C34.132 125.985 34.5446 125.607 34.9985 125.363C35.446 125.114 35.9013 125.004 36.3643 125.034C36.8209 125.059 37.2533 125.219 37.6613 125.515ZM37.2819 127.181C37.0228 126.993 36.7386 126.936 36.4292 127.008C36.1198 127.08 35.81 127.33 35.4999 127.757C35.185 128.191 35.0436 128.562 35.0757 128.872C35.1031 129.188 35.2464 129.441 35.5055 129.628C35.771 129.821 36.0585 129.881 36.3679 129.809C36.6726 129.743 36.9824 129.494 37.2973 129.06C37.6074 128.632 37.7488 128.261 37.7214 127.944C37.694 127.628 37.5475 127.374 37.2819 127.181Z" fill="white"/>
<path d="M33.0843 122.001L29.0259 126.289L27.5172 124.863L28.2018 124.14C27.5367 124.447 26.8536 124.313 26.1527 123.739L25.6923 123.37L26.8424 121.98L27.7626 122.701C28.0983 122.963 28.4046 123.088 28.6816 123.074C28.9531 123.067 29.2209 122.924 29.4848 122.645L31.5057 120.51L33.0843 122.001Z" fill="white"/>
<path d="M21.4915 119.954L19.9928 121.173L18.5755 119.434L20.0742 118.214L21.4915 119.954ZM26.8247 115.538L22.2448 119.264L20.8957 117.608L25.4756 113.882L26.8247 115.538Z" fill="white"/>
<path d="M23.599 107.224C23.9103 107.727 24.1549 108.229 24.333 108.731C24.5069 109.225 24.5817 109.696 24.5573 110.143L23.0417 110.43C23.0384 110.075 22.9717 109.693 22.8415 109.285C22.7071 108.869 22.5494 108.515 22.3686 108.223C22.112 107.808 21.8321 107.553 21.5289 107.458C21.2283 107.352 20.8942 107.412 20.5266 107.639L20.0569 107.929C20.3903 107.921 20.7168 108.015 21.0364 108.213C21.3561 108.411 21.6168 108.673 21.8187 108.999C22.0963 109.448 22.236 109.903 22.2379 110.362C22.233 110.826 22.1022 111.269 21.8455 111.69C21.5847 112.105 21.2024 112.468 20.6986 112.779C20.1948 113.09 19.699 113.269 19.211 113.316C18.7188 113.357 18.2675 113.274 17.8572 113.066C17.4401 112.863 17.0927 112.537 16.8151 112.088C16.6048 111.747 16.4883 111.392 16.4656 111.02C16.4319 110.646 16.4942 110.321 16.6526 110.045L15.9684 110.467L14.8706 108.691L19.2207 106.006C20.0989 105.464 20.9072 105.303 21.6458 105.524C22.3843 105.745 23.0354 106.312 23.599 107.224ZM20.134 109.264C19.9489 108.964 19.6996 108.789 19.386 108.738C19.0724 108.687 18.7318 108.775 18.3642 109.002C17.9966 109.229 17.7654 109.494 17.6705 109.797C17.5756 110.1 17.6207 110.401 17.8058 110.701C17.9867 110.993 18.2339 111.165 18.5475 111.216C18.8611 111.267 19.2017 111.179 19.5693 110.952C19.9369 110.725 20.1681 110.46 20.263 110.157C20.3579 109.854 20.3149 109.556 20.134 109.264Z" fill="white"/>
<path d="M18.9003 103.754L11.1862 107.228L10.3083 105.281L13.3064 103.931C12.6069 103.781 12.091 103.337 11.7589 102.601C11.4696 101.959 11.4455 101.4 11.6867 100.922C11.9246 100.438 12.4375 100.018 13.2253 99.6638L16.4094 98.2301L17.2874 100.177L14.1799 101.576C13.8516 101.724 13.6445 101.888 13.5585 102.067C13.4692 102.239 13.4739 102.434 13.5726 102.653C13.7041 102.944 13.9042 103.135 14.1727 103.225C14.434 103.318 14.7215 103.294 15.0352 103.152L18.0223 101.807L18.9003 103.754Z" fill="white"/>
<path d="M14.4481 91.8263C14.7074 92.684 14.7004 93.3797 14.4271 93.9134C14.1539 94.4471 13.6152 94.8354 12.811 95.0781L10.9385 95.6434L11.2579 96.7002L9.753 97.1545L9.43355 96.0977L7.79076 96.5936L7.1727 94.549L8.81548 94.0531L8.32936 92.4449L9.83428 91.9907L10.3204 93.5988L12.124 93.0543C12.6754 92.8879 12.8667 92.5251 12.6977 91.9661C12.6699 91.8742 12.6321 91.777 12.5844 91.6744C12.5267 91.5665 12.4579 91.4494 12.3779 91.3231L13.7651 90.6035C13.9102 90.7519 14.0416 90.9378 14.1593 91.1614C14.2847 91.3826 14.381 91.6042 14.4481 91.8263Z" fill="white"/>
<path d="M12.9764 85.0228C13.0936 85.7332 13.0729 86.369 12.9141 86.9303C12.7461 87.4849 12.456 87.9381 12.0438 88.2898C11.6315 88.6415 11.1136 88.8687 10.49 88.9715C9.89801 89.069 9.3516 89.0252 8.8508 88.8402C8.34869 88.6472 7.93358 88.3427 7.60546 87.9265C7.26814 87.5037 7.05064 86.9963 6.95298 86.4043C6.85662 85.8202 6.89563 85.2949 7.07001 84.8283C7.24309 84.3539 7.53966 83.9645 7.95972 83.6601C8.37059 83.3492 8.87993 83.1437 9.48774 83.0435L9.94951 82.9675L10.5961 86.8865C10.9632 86.753 11.2095 86.5503 11.3349 86.2783C11.4603 86.0063 11.4872 85.6532 11.4156 85.2191C11.3661 84.9192 11.2712 84.6145 11.131 84.3052C10.9816 83.9893 10.7992 83.7193 10.5839 83.4954L11.8833 82.7462C12.1459 83.011 12.3762 83.3501 12.5741 83.7634C12.772 84.1767 12.9061 84.5965 12.9764 85.0228ZM8.299 86.0852C8.35109 86.401 8.48878 86.6459 8.71209 86.8199C8.93409 86.986 9.2312 87.0668 9.60342 87.0622L9.2401 84.86C8.87301 84.9448 8.61366 85.0929 8.46206 85.3044C8.30126 85.5092 8.24691 85.7695 8.299 86.0852Z" fill="white"/>
<path d="M12.1385 78.9716L6.23775 79.1688L6.16833 77.0939L7.16378 77.0607C6.47506 76.8115 6.08361 76.2363 5.98942 75.3349L5.92178 74.7488L7.71677 74.5688L7.86363 75.7286C7.91778 76.151 8.04801 76.4548 8.25432 76.64C8.45264 76.8255 8.74369 76.9118 9.12747 76.899L12.0658 76.8008L12.1385 78.9716Z" fill="white"/>
<path d="M14.098 59.5449C13.8966 60.4179 13.5447 61.0183 13.0422 61.3459C12.5397 61.6734 11.8792 61.743 11.0606 61.5544L9.15454 61.1154L8.90643 62.1912L7.37453 61.8384L7.62264 60.7626L5.95042 60.3775L6.43046 58.2961L8.10268 58.6812L8.48024 57.0442L10.0121 57.397L9.63458 59.0341L11.4705 59.4569C12.0318 59.5862 12.3781 59.3663 12.5093 58.7972C12.5309 58.7037 12.5465 58.6006 12.5561 58.4878C12.5596 58.3655 12.5581 58.2297 12.5515 58.0804L14.113 58.1445C14.1652 58.3454 14.1869 58.572 14.1779 58.8244C14.1767 59.0787 14.1501 59.3188 14.098 59.5449Z" fill="white"/>
<path d="M16.0631 53.2772C15.8341 53.8919 15.5181 54.3846 15.1153 54.7554C14.7124 55.1262 14.2461 55.3581 13.7162 55.4511C13.1864 55.5442 12.6253 55.4805 12.033 55.2601C11.4332 55.0369 10.9671 54.7183 10.6347 54.3044C10.2948 53.8877 10.0939 53.4074 10.0319 52.8636C9.96984 52.3199 10.0534 51.7406 10.2824 51.1259C10.5115 50.5112 10.8275 50.0185 11.2303 49.6477C11.6332 49.2769 12.0981 49.0487 12.6252 48.9632C13.1475 48.8674 13.7086 48.931 14.3084 49.1543C14.9007 49.3747 15.3668 49.6933 15.7067 50.11C16.0494 50.5192 16.2517 50.9957 16.3137 51.5395C16.3757 52.0832 16.2922 52.6625 16.0631 53.2772ZM14.5898 52.7289C14.7016 52.429 14.6813 52.1398 14.529 51.8612C14.3767 51.5826 14.0532 51.3512 13.5583 51.167C13.056 50.9801 12.6598 50.9436 12.3697 51.0576C12.0721 51.1688 11.8675 51.3743 11.7557 51.6742C11.6412 51.9815 11.6601 52.2745 11.8124 52.5531C11.9572 52.829 12.2807 53.0603 12.7831 53.2473C13.2779 53.4314 13.6741 53.4679 13.9717 53.3567C14.2693 53.2455 14.4753 53.0363 14.5898 52.7289Z" fill="white"/>
<path d="M16.9536 50.1323L11.7337 47.3736L12.7048 45.5388L13.405 45.9088C13.2435 45.6154 13.1596 45.295 13.1533 44.9478C13.1507 44.5936 13.243 44.2397 13.4301 43.8861C13.6172 43.5326 13.8559 43.2697 14.1462 43.0973C14.4403 42.918 14.7855 42.8471 15.182 42.8847C14.9714 42.5472 14.8652 42.1834 14.8634 41.7934C14.8546 41.3996 14.9475 41.0189 15.142 40.6512C15.4639 40.0431 15.8854 39.6913 16.4066 39.5958C16.9245 39.4894 17.5689 39.64 18.3399 40.0474L21.4272 41.6791L20.4281 43.567L17.3938 41.9634C17.0897 41.8027 16.8461 41.7327 16.663 41.7536C16.48 41.7745 16.3324 41.891 16.2201 42.1032C16.0816 42.3648 16.0669 42.6149 16.176 42.8535C16.2888 43.0851 16.5149 43.2905 16.8544 43.47L19.6872 44.967L18.6881 46.8549L15.6537 45.2513C15.3496 45.0906 15.106 45.0207 14.923 45.0416C14.7399 45.0625 14.5923 45.179 14.48 45.3911C14.3453 45.6457 14.3325 45.8923 14.4416 46.1309C14.5544 46.3624 14.7805 46.5679 15.12 46.7473L17.9527 48.2444L16.9536 50.1323Z" fill="white"/>
<path d="M23.6409 38.8708C23.2615 39.4059 22.8294 39.8009 22.3448 40.0557C21.8601 40.3104 21.3498 40.4147 20.8138 40.3685C20.2777 40.3222 19.7518 40.1165 19.236 39.7513C18.7137 39.3814 18.3451 38.9538 18.1303 38.4684C17.9089 37.9784 17.8382 37.4627 17.918 36.9213C17.9979 36.3799 18.2275 35.8416 18.607 35.3065C18.9864 34.7714 19.4184 34.3764 19.9031 34.1216C20.3878 33.8669 20.8958 33.7659 21.4272 33.8186C21.9566 33.8602 22.4825 34.066 23.0049 34.4358C23.5207 34.801 23.8892 35.2286 24.1106 35.7186C24.3366 36.2021 24.4097 36.7146 24.3298 37.256C24.25 37.7974 24.0203 38.3356 23.6409 38.8708ZM22.3579 37.9624C22.543 37.7013 22.5978 37.4166 22.5222 37.1083C22.4466 36.7999 22.1934 36.4932 21.7625 36.1881C21.325 35.8783 20.9515 35.7413 20.6418 35.7769C20.3257 35.8079 20.075 35.9539 19.8899 36.2149C19.7002 36.4825 19.6431 36.7704 19.7187 37.0788C19.7877 37.3826 20.041 37.6893 20.4784 37.999C20.9094 38.3041 21.2829 38.4412 21.5991 38.4102C21.9153 38.3792 22.1682 38.2299 22.3579 37.9624Z" fill="white"/>
<path d="M27.5292 33.6606L23.1935 29.6532L24.6037 28.1297L25.3351 28.8057C25.0205 28.1445 25.1467 27.4605 25.7138 26.7536L26.0779 26.2895L27.4813 27.4232L26.7699 28.3507C26.5113 28.6891 26.3902 28.9966 26.4067 29.2732C26.4173 29.5444 26.5635 29.8104 26.8455 30.071L29.0046 32.0666L27.5292 33.6606Z" fill="white"/>
<path d="M33.2948 27.8617L29.5151 23.3262L31.1108 21.9982L31.7484 22.7634C31.5222 22.067 31.736 21.4051 32.3899 20.7777L32.8111 20.3646L34.0557 21.6707L33.2301 22.4982C32.9298 22.8002 32.7699 23.0894 32.7504 23.3658C32.7257 23.6361 32.8363 23.9188 33.0821 24.2138L34.9643 26.4723L33.2948 27.8617Z" fill="white"/>
<path d="M41.2447 22.0772C40.6904 22.428 40.1407 22.6291 39.5955 22.6805C39.0504 22.7319 38.5388 22.6344 38.0606 22.3879C37.5824 22.1414 37.1742 21.7512 36.8359 21.2173C36.4934 20.6767 36.315 20.1411 36.3008 19.6104C36.2823 19.0731 36.4129 18.5692 36.6925 18.0987C36.9722 17.6283 37.3892 17.2177 37.9436 16.867C38.4979 16.5162 39.0476 16.3151 39.5928 16.2637C40.1379 16.2123 40.6462 16.3119 41.1176 16.5627C41.5915 16.8025 41.9997 17.1927 42.3423 17.7333C42.6805 18.2672 42.8589 18.8028 42.8774 19.3402C42.9026 19.8733 42.7754 20.375 42.4958 20.8455C42.2161 21.3159 41.7991 21.7265 41.2447 22.0772ZM40.4034 20.7493C40.6738 20.5782 40.8327 20.3357 40.88 20.0217C40.9273 19.7078 40.8097 19.3278 40.5271 18.8818C40.2402 18.429 39.9468 18.1603 39.6469 18.0755C39.3426 17.984 39.0553 18.0238 38.7849 18.1949C38.5077 18.3703 38.3455 18.6149 38.2982 18.9289C38.2466 19.2361 38.3642 19.616 38.6511 20.0688C38.9337 20.5148 39.2271 20.7836 39.5313 20.8751C39.8355 20.9666 40.1262 20.9247 40.4034 20.7493Z" fill="white"/>
<path d="M45.5243 19.3405L40.7842 15.0307L42.7438 14.122L45.3708 16.6736L45.1061 13.0265L46.3145 12.4661L48.9668 15.0721L48.6878 11.3656L50.5276 10.5124L50.7825 16.9021L49.1821 17.6442L46.9031 15.5L47.1246 18.5984L45.5243 19.3405Z" fill="white"/>
<path d="M53.7994 15.3473L53.1442 13.2639L55.2622 12.5987L55.9174 14.6821L53.7994 15.3473Z" fill="white"/>
</svg>
